<svg width="2081" height="1508" viewBox="0 0 2081 1508" fill="none" xmlns="http://www.w3.org/2000/svg">
<path d="M332.868 731.8C349.585 699.708 358.222 689.882 363.501 696.952C365.111 699.106 365.511 702.836 365.098 711.863C364.623 722.305 364.848 723.776 366.807 722.971C368.049 722.461 373.644 720.428 379.239 718.453C381.877 717.522 385.213 716.295 389.107 714.829C389.094 715.38 389.085 715.933 389.085 716.487C389.085 725.115 390.646 733.491 393.58 741.49C393.144 741.642 392.723 741.788 392.32 741.924C388.324 743.266 383.092 745.231 380.693 746.289C378.295 747.347 372.409 749.745 367.612 751.617C354.59 756.701 349.885 759.808 346.276 765.709C344.482 768.641 342.335 771.835 341.505 772.801C340.677 773.769 334.765 782.107 328.37 791.329C321.975 800.551 315.762 808.107 314.563 808.123C312.97 808.143 312.861 808.454 314.157 809.278C315.451 810.099 314.958 811.457 312.34 814.279C310.365 816.408 308.75 818.62 308.749 819.193C308.749 821.318 292.847 838.412 271.793 858.919C259.861 870.542 246.99 883.079 243.192 886.779C236.832 892.978 226.25 900.98 203.724 916.625C191.101 925.39 193.229 921.899 181.276 953.447C179.309 958.642 177.571 963.547 177.415 964.347C177.26 965.147 176.751 966.455 176.284 967.255C175.818 968.054 175.002 970.523 174.472 972.744C173.94 974.963 171.887 980.317 169.909 984.642C167.931 988.966 166.314 993.723 166.314 995.213C166.314 996.702 165.761 998.544 165.087 999.302C164.411 1000.06 161.044 1007.22 157.603 1015.22C147.267 1039.23 144.694 1044.74 132.513 1068.99C104.309 1125.16 98.3476 1133.3 87.2726 1130.8C80.4621 1129.27 78.1844 1127.33 76.2237 1121.39C74.4738 1116.08 75.9566 1112.74 91.4034 1087.16C101.803 1069.94 105.054 1063.57 116.237 1038.47C118.018 1034.48 121.418 1026.95 123.791 1021.76C126.165 1016.56 128.938 1009.69 129.954 1006.5C130.969 1003.3 132.661 999.691 133.715 998.477C134.769 997.265 138.343 989.089 141.655 980.309C144.969 971.531 148.176 963.041 148.785 961.441C151.362 954.67 153.921 947.427 159.14 932.132C167.866 906.556 168.49 905.672 186.276 893.7C201.876 883.2 220.614 868.638 230.265 859.515C245.475 845.137 274.007 816.672 279.006 810.888C289.61 798.62 291.306 796.468 298.107 786.638C301.827 781.258 306.725 774.473 308.991 771.56C311.256 768.648 313.109 765.888 313.109 765.428C313.11 764.969 316.193 759.831 319.961 754.01C323.728 748.191 329.537 738.195 332.868 731.8ZM433.703 0.466515C434.896 -0.620641 473.835 0.365449 481.201 1.67062C485.076 2.35662 496.094 4.21976 505.687 5.81124C528.668 9.62356 527.146 9.24845 541.296 14.5534C548.09 17.101 555.211 19.5409 557.123 19.9773C559.033 20.4118 568.292 24.5995 577.695 29.281C587.097 33.9613 595.144 37.7918 595.582 37.7937C597.239 37.7937 614.814 48.529 617.214 51.0085C618.601 52.4405 624.324 56.5794 629.931 60.2067C635.539 63.8341 640.127 67.4251 640.128 68.1872C640.128 68.9488 641.412 69.9812 642.982 70.4782C645.352 71.2308 666.805 89.4694 673.218 96.1814C674.231 97.2423 679.215 102.438 684.295 107.727C697.018 120.981 711.053 140.323 723.453 161.7C726.053 166.182 729.579 169.753 733.502 171.875C747.673 179.538 771.233 191.544 776.326 193.697C783.843 196.874 798.39 205.084 812.359 214.031C836.412 229.436 844.382 234.676 845.972 236.135C846.873 236.962 851.348 240.254 855.916 243.452C875.62 257.245 898.669 274.68 905.678 281.092C916.811 291.281 927.905 308.583 927.905 315.759C927.905 326.671 917.074 342.299 907.198 345.636C901.228 347.655 869.41 347.317 861.048 345.145C855.412 343.682 843.488 341.52 837.067 340.8C833.869 340.439 826.348 339.407 820.353 338.506C795.732 334.804 772.476 334.189 770.817 337.198C768.418 341.546 759.396 366.104 753.436 384.504C750.083 394.857 746.785 404.636 746.108 406.235C744.148 410.857 739.186 426.403 738.427 430.298C738.046 432.251 736.381 439.409 734.724 446.204C733.068 452.999 731.71 459.66 731.704 461.008C731.698 462.355 730.96 465.298 730.062 467.548C729.165 469.797 728.263 473.274 728.06 475.272C727.052 485.173 722.959 513.185 721.683 518.917C720.886 522.491 719.777 530.513 719.218 536.742L718.2 548.068L721.677 546.708C725.547 545.193 745.872 538.746 765.849 532.697C773.043 530.518 780.238 528.198 781.837 527.538C783.436 526.879 789.976 524.924 796.371 523.193C802.766 521.462 810.287 519.2 813.085 518.165C815.883 517.129 821.115 515.525 824.712 514.602C828.309 513.681 834.16 512.01 837.712 510.891C841.626 509.659 848.318 509.058 854.702 509.365C863.831 509.802 866.461 510.605 874.406 515.38C879.449 518.408 885.537 522.635 887.936 524.768C890.334 526.903 898.183 532.544 905.377 537.301C918.344 545.876 925.598 550.765 933.1 556.109C925.794 562.841 919.883 570.689 915.759 579.32C913.816 577.921 911.526 576.322 909.22 574.769C897.247 566.704 885.846 558.649 882.47 555.866C881.061 554.706 879.609 553.758 879.241 553.758C878.871 553.755 873.665 550.425 867.668 546.356C850.766 534.889 849.04 534.992 805.818 550.052C800.622 551.863 791.792 554.84 786.196 556.669C780.601 558.497 775.402 560.551 774.642 561.235C773.883 561.918 771.866 562.477 770.161 562.477C768.455 562.477 766.613 562.925 766.065 563.473C764.924 564.614 757.206 567.524 747.682 570.405C736.121 573.902 729.842 576.594 731.24 577.458C733.88 579.09 778.378 591.546 781.54 591.539C783.302 591.534 787.687 592.477 791.284 593.631C794.882 594.785 804.038 597.145 811.632 598.876C828.569 602.736 838.176 605.894 839.588 608.068C840.175 608.972 840.665 609.169 840.678 608.502C840.733 605.497 867.267 636.766 871.222 644.497C872.421 646.84 876.672 652.355 880.669 656.752C899.905 677.911 905.928 684.925 912.645 693.992C916.641 699.387 921.744 705.975 923.984 708.632C926.223 711.288 931.129 717.97 934.885 723.48C938.641 728.989 946.291 739.972 951.887 747.885C953.432 750.071 954.96 752.267 956.387 754.339C944.613 754.202 933.221 755.108 930.812 754.01C927.895 752.681 925.364 762.67 911.917 742.074C907.685 735.592 899.468 724.982 891.232 715.366C886.649 710.018 882.889 705.048 882.874 704.327C882.852 703.126 864.731 682.412 854.948 672.401C852.709 670.109 850.874 667.733 850.874 667.121C850.874 666.509 849.566 665.667 847.967 665.249C846.368 664.832 845.061 663.447 845.061 662.174C845.061 660.899 844.457 659.856 843.719 659.856C842.981 659.856 840.475 658.256 838.152 656.301C834.372 653.12 832.486 652.726 820.235 652.556C812.705 652.45 799.35 651.786 790.557 651.08C781.764 650.372 767.375 649.681 758.582 649.545C749.789 649.409 738.343 648.802 733.147 648.197C727.95 647.592 711.927 646.642 697.538 646.084C673.688 645.159 662.658 644.465 662.656 643.889C662.656 643.77 660.489 643.391 657.841 643.047C655.193 642.702 651.802 641.764 650.307 640.965C646.391 638.868 642.544 639.155 636.373 642.143C626.993 636.116 616.47 630.927 605.054 626.743C605.367 626.636 605.673 626.533 605.973 626.434C609.17 625.386 614.246 622.981 617.25 621.091C622.437 617.828 622.667 617.363 621.79 611.884C620.736 605.291 623.183 597.975 627.15 595.851C631.117 593.728 638.092 594.178 640.178 596.692C641.2 597.923 647.72 602.733 654.667 607.38C665.134 614.382 668.766 616.012 675.876 616.895C680.595 617.482 685.439 618.142 686.638 618.363C690.807 619.128 715.085 620.758 732.42 621.437C742.013 621.812 762.26 622.735 777.415 623.486C792.57 624.237 805.271 624.555 805.637 624.187C806.003 623.821 805.081 623.521 803.587 623.521C802.093 623.521 794.953 622.182 787.72 620.546C780.488 618.908 771.3 616.884 767.303 616.047C760.034 614.522 736.824 607.524 730.149 604.843C728.201 604.062 722.028 601.993 716.433 600.249C699.091 594.841 684.953 588.18 681.784 583.925C677.928 578.745 678.08 569.791 682.281 554.484C684.037 548.089 685.801 540.894 686.2 538.496C686.6 536.098 687.431 533.155 688.049 531.956C688.667 530.757 689.638 526.505 690.206 522.509C690.774 518.512 692.53 510.663 694.107 505.067C695.685 499.472 697.239 493.698 697.559 492.234C697.88 490.772 698.499 488.453 698.934 487.083C699.368 485.71 701.319 476.116 703.268 465.759C707.92 441.036 710.564 430.046 716.719 409.869C719.522 400.676 722.807 389.885 724.018 385.887C725.228 381.891 727.797 374.369 729.725 369.173C731.652 363.977 734.454 355.474 735.952 350.278C738.524 341.361 747.436 318.379 750.653 312.366C753.995 306.125 759.892 304.829 780.263 305.861C800.414 306.881 806.351 307.35 814.538 308.577C817.336 308.997 825.839 310.093 833.433 311.014C841.027 311.936 851.492 313.34 856.688 314.134C861.884 314.929 871.859 315.945 878.853 316.392C890.603 317.144 891.568 316.998 891.56 314.484C891.555 312.987 890.41 310.076 889.016 308.013C886.346 304.06 871.628 289.236 870.373 289.235C869.372 289.235 851.101 275.536 846.126 271.055C843.914 269.063 841.512 267.434 840.786 267.433C840.062 267.433 836.5 265.166 832.869 262.394C829.239 259.624 820.522 254.294 813.499 250.55C806.476 246.808 798.441 241.957 795.644 239.772C792.846 237.586 787.287 234.005 783.29 231.812C779.293 229.619 773.942 226.271 771.397 224.373C768.852 222.476 766.304 220.925 765.735 220.925C765.164 220.924 757.642 217.329 749.019 212.936C731.558 204.042 709.392 194.763 705.604 194.762C704.245 194.762 701.743 196.241 700.045 198.048C697.383 200.883 697.144 202.126 698.304 207.132C701.003 218.772 699.99 239.502 696.101 252.256C687.995 278.83 644.617 352.533 622.585 377.167C620.44 379.565 616.223 385.125 613.215 389.521C610.206 393.918 606.691 398.556 605.404 399.829C604.117 401.101 597.665 408.352 591.066 415.941C579.316 429.451 555.39 451.704 544.594 459.163C541.606 461.228 536.699 465.148 533.691 467.872C530.683 470.597 525.026 474.848 521.119 477.319C517.213 479.791 512.143 483.056 509.853 484.576C505.898 487.199 487.299 499.337 478.2 505.232C468.288 511.655 406.604 543.814 400.601 545.689C398.761 546.265 393.374 548.927 388.632 551.607C383.891 554.287 375.913 558.294 370.904 560.512C365.897 562.728 361.474 564.928 361.072 565.403C360.673 565.875 357.729 567.45 354.531 568.9C333.265 578.549 277.457 607.297 270.736 612.064C268.614 613.57 266.46 614.8 265.948 614.8C264.639 614.802 254.983 623.787 242.29 636.811C220.346 659.332 213.685 685.661 214.949 744.882C215.92 790.371 214.182 798.129 198.985 816.099C181.719 836.518 157.845 860.428 154.726 860.428C153.905 860.428 153.234 860.942 153.234 861.568C153.233 862.196 151.106 863.919 148.51 865.4C145.911 866.88 138.481 872.06 131.997 876.909L120.209 885.726L114.817 901.055C109.848 915.181 107.717 920.642 100.88 936.733C95.0358 950.491 89.2348 964.998 86.1056 973.686C83.1345 981.938 68.2577 1013.35 62.6476 1023.21C61.5109 1025.21 59.0606 1029.79 57.2003 1033.39C55.3414 1036.98 53.2594 1040.58 52.5763 1041.38C51.8931 1042.18 47.3731 1048.94 42.5304 1056.41C37.689 1063.88 30.2272 1073.6 25.9484 1078.02C18.5144 1085.7 17.927 1086.01 12.6671 1085.03C0.675142 1082.82 -3.27392 1073.93 2.85655 1062.95C6.69796 1056.07 14.9315 1043.5 16.5157 1042.11C21.7495 1037.48 30.9917 1022.16 44.1378 996.323C46.9832 990.728 49.8041 985.932 50.4034 985.665C51.0022 985.397 51.4942 984.057 51.4942 982.685C51.4943 981.312 52.1293 979.555 52.9054 978.779C53.683 978.001 54.5462 976.072 54.8253 974.491C55.1045 972.908 56.662 968.672 58.2853 965.075C64.8794 950.468 68.2109 942.738 68.256 941.937C68.3218 940.816 73.1291 927.702 75.4923 922.199C80.0023 911.698 87.8292 890.873 87.8292 889.373C87.8296 888.469 89.7843 883.636 92.172 878.631C96.5525 869.454 97.6531 868.412 121.633 850.741C123.982 849.01 132.462 841.489 140.478 834.027C148.493 826.565 156.849 819.177 159.047 817.61C161.244 816.045 164.408 812.775 166.078 810.343C167.748 807.913 171.279 803.636 173.923 800.839C187.568 786.402 190.66 775.865 188.426 751.422C187.057 736.432 187.351 703.78 188.949 693.285C189.497 689.688 190.178 684.928 190.46 682.707C191.058 678.019 195.976 658.936 197.607 654.982C198.659 652.43 197.993 652.339 185.059 653.301C176.271 653.956 168.031 653.696 161.953 652.571C156.758 651.609 150.545 650.527 148.147 650.165C131.559 647.668 110.186 638.886 80.2482 622.269C66.2897 614.523 59.8791 606.713 60.5157 598.234C61.1422 589.892 63.7817 588.946 75.6007 592.827C81.0394 594.612 89.975 598.323 95.4601 601.076C100.943 603.828 106.158 606.079 107.052 606.08C107.944 606.08 109.707 606.963 110.969 608.04C115.156 611.615 146.097 620.857 162.893 623.55C174.209 625.364 195.082 625.508 205.877 623.845C213.143 622.728 215.435 621.476 224.045 613.925C229.463 609.173 237.168 602.598 241.165 599.313C248.271 593.475 250.218 592.203 266.6 582.695C274.998 577.82 311.428 559.508 342.178 544.704C352.17 539.894 361.653 535.252 363.252 534.388C370.195 530.641 385.38 523.454 399.22 517.366C401.021 516.572 404.457 514.647 406.855 513.086C412.127 509.653 417.728 506.589 433.016 498.773C459.331 485.322 499.824 459.779 517.505 445.477C519.482 443.878 524.397 439.954 528.429 436.757C536.815 430.107 566.254 401.429 576.967 389.474C583.032 382.706 590.318 374.048 601.707 360.073C602.854 358.665 603.8 357.029 603.809 356.439C603.817 355.846 606.801 351.44 610.438 346.645C614.076 341.849 619.588 333.626 622.689 328.374C625.789 323.123 630.653 315.289 633.499 310.967C636.346 306.646 638.675 302.547 638.675 301.859C638.675 301.173 640.498 297.887 642.724 294.559C648.655 285.695 649.62 283.982 656.823 269.547C660.431 262.316 663.383 255.745 663.383 254.947C663.381 254.058 655.074 253.392 641.945 253.229C618.689 252.94 598.328 249.913 588.137 245.228C581.216 242.048 575.937 236.324 577.109 233.272C580.349 224.831 617.463 216.564 652.125 216.564H669.428L668.419 211.841C667.864 209.242 666.995 206.368 666.486 205.454C663.751 200.53 633.274 175.117 621.417 167.875C620.109 167.075 613.483 162.782 606.692 158.333C599.902 153.885 591.827 148.98 588.75 147.432C585.672 145.886 581.094 143.506 578.576 142.144C576.058 140.782 569.092 137.659 563.097 135.203C557.102 132.748 550.234 129.836 547.836 128.734C540.73 125.468 528.004 121.685 520.221 120.528C516.224 119.934 510.05 118.702 506.501 117.793C494.949 114.834 458.645 113.53 445.167 115.591C442.481 116.002 436.032 116.929 430.836 117.653C425.64 118.375 419.1 119.707 416.302 120.611C413.504 121.515 408.957 122.567 406.197 122.949C403.437 123.333 397.224 125.348 392.39 127.427C365.502 138.995 362.694 140.614 333.457 161.386C326.663 166.213 319.468 171.264 317.47 172.61C315.471 173.956 310.85 177.528 307.202 180.55C303.553 183.57 299.701 186.043 298.642 186.043C296.193 186.043 292.867 181.717 292.808 178.454C292.726 174.075 299.918 159.566 306.214 151.404C312.9 142.737 328.294 127.486 334.558 123.321C336.751 121.861 343.028 117.133 348.51 112.809C357.506 105.712 366.888 100.248 374.879 97.4519C376.478 96.8923 380.729 95.1174 384.326 93.5085C398.762 87.051 417.352 81.3224 424.296 81.1901C426.694 81.145 432.908 80.1314 438.104 78.9382C447.072 76.8788 481.872 76.0736 496.967 77.5749C510.404 78.9121 529.147 81.7359 531.849 82.8317C533.447 83.4814 538.68 85.1296 543.476 86.4958C556.343 90.1613 562.979 92.4347 571.091 95.9577C585.895 102.389 591.5 105.151 593.882 107.19C596.361 109.312 598.743 110.671 613.618 118.459C618.198 120.857 622.929 123.597 624.133 124.55C625.336 125.502 632.205 130.628 639.395 135.94C646.585 141.252 652.798 146.078 653.202 146.662C653.607 147.247 657.534 150.526 661.93 153.948C666.326 157.371 673.67 163.75 678.251 168.123C691.368 180.648 692.445 175.367 680.23 158.427C671.072 145.729 627.436 102.995 618.295 97.7732C613.881 95.2515 607.776 91.0263 604.732 88.3825C599.223 83.6022 581.526 73.1389 571.817 68.9226C569.02 67.7075 564.768 65.802 562.37 64.6872C532.2 50.6662 508.666 44.2973 467.171 38.9226C460.376 38.0433 451.547 37.2662 447.55 37.195C438.285 37.0323 401.697 39.1224 400.46 39.8855C399.947 40.2023 396.596 40.8649 393.017 41.3591C382.047 42.8735 370.593 45.4561 369.139 46.7439C368.38 47.4168 366.313 47.9674 364.546 47.9675C360.081 47.9675 336.603 55.7858 326.542 60.6228C321.952 62.8291 311.442 68.7329 303.187 73.7429C294.931 78.7513 287.83 82.8493 287.408 82.8493C285.645 82.8496 273.431 93.3292 255.699 110.053C231.033 133.32 231.203 133.205 227.28 129.282C225.015 127.016 224.442 125.176 225.119 122.329C226.593 116.13 232.084 103.016 236.174 95.9304C241.748 86.2696 259.883 67.7631 273.14 58.2097C284.319 50.1511 308.229 34.8888 309.676 34.8864C310.06 34.8864 315.731 32.3567 322.278 29.2653C346.658 17.7528 350.887 16.1943 370.52 11.4997C373.717 10.7353 377.967 9.45928 379.966 8.66573C381.964 7.87219 385.562 6.93495 387.96 6.58175C390.358 6.23002 395.918 5.2499 400.315 4.40402C404.711 3.55959 413.868 2.4695 420.662 1.98116C427.457 1.49283 433.325 0.812436 433.703 0.466515ZM956.387 754.339C966.702 754.458 977.31 755.378 982.429 759.148C976.884 758.911 965.816 769.428 963.877 765.735C963.154 764.357 960.126 759.769 956.387 754.339ZM982.429 759.148C984.533 759.238 985.842 760.877 985.555 765.428C985.724 762.751 984.545 760.707 982.429 759.148Z" fill="#1C4EDD"/>
<path d="M919.569 564.648C948.988 584.26 1045.41 636.202 1108.42 622.536" stroke="#1C4EDD" stroke-width="30.3676" stroke-linecap="round"/>
<path d="M411.164 833.09C411.164 861.51 414.871 887.459 422.285 910.936C429.947 934.167 438.72 952.702 448.605 966.541C458.737 980.133 474.06 992.119 494.572 1002.5C515.084 1012.88 536.461 1018.07 558.702 1018.07C581.192 1018.07 598.738 1011.89 611.342 999.533C624.193 987.177 630.618 972.102 630.618 954.308C630.618 936.515 622.215 919.339 605.41 902.781C588.853 885.976 580.574 872.754 580.574 863.116C580.574 859.656 582.304 856.197 585.763 852.737C594.66 843.84 614.802 839.392 646.187 839.392C677.82 839.392 700.186 842.604 713.284 849.03C726.382 855.208 732.931 865.958 732.931 881.281C732.931 978.404 724.528 1036.85 707.723 1056.62C697.097 1069.22 675.843 1079.73 643.963 1088.13C612.33 1096.53 578.473 1100.73 542.392 1100.73C468.252 1100.73 410.794 1077.13 370.017 1029.93C351.976 1008.92 337.272 980.875 325.904 945.782C314.536 910.442 308.852 872.137 308.852 830.866C308.852 704.087 357.784 621.297 455.648 582.498C484.069 571.129 516.69 565.445 553.513 565.445H567.97C615.666 565.445 649.4 570.512 669.171 580.644C688.941 590.529 702.286 601.032 709.206 612.153C716.126 623.027 719.586 631.43 719.586 637.361C719.586 655.402 716.126 667.758 709.206 674.431C702.534 680.856 696.602 684.069 691.413 684.069C686.47 684.069 667.811 677.767 635.437 665.163C603.31 652.56 575.878 646.258 553.142 646.258C505.94 646.258 469.611 663.804 444.157 698.897C422.162 729.047 411.164 773.778 411.164 833.09ZM1012.11 847.918V845.693L1011.74 843.469V839.392C1011.25 836.426 1011 834.325 1011 833.09C1011 818.756 1004.57 806.029 991.723 794.908C978.872 783.54 964.909 777.856 949.834 777.856H938.713C917.954 777.856 900.531 785.887 886.444 801.951C872.358 818.015 865.315 835.932 865.315 855.702V861.634C865.315 869.048 870.134 872.754 879.772 872.754L889.039 873.867H912.393L914.247 873.496L982.085 869.789L989.869 869.048C1004.7 869.048 1012.11 862.004 1012.11 847.918ZM1077.35 915.385C1056.84 923.54 1016.81 927.618 957.248 927.618C897.936 927.618 868.28 936.515 868.28 954.308C868.28 977.786 877.301 996.197 895.341 1009.54C913.382 1022.89 939.084 1029.56 972.447 1029.56C985.297 1029.56 1001.61 1026.35 1021.38 1019.92C1041.15 1013.5 1056.6 1010.28 1067.72 1010.28C1081.31 1010.28 1088.1 1021.16 1088.1 1042.91C1088.1 1056.74 1073.15 1069.97 1043.25 1082.57C1013.59 1095.17 984.803 1101.48 956.877 1101.48H948.351C917.954 1101.48 891.14 1096.9 867.91 1087.76C844.926 1078.37 826.638 1066.63 813.046 1052.54C799.454 1038.46 788.209 1019.67 779.313 996.197C770.663 972.72 766.338 946.647 766.338 917.98V909.083C766.338 850.76 781.043 804.793 810.451 771.183C826.021 753.39 845.421 739.797 868.651 730.406C891.881 720.768 916.347 715.949 942.049 715.949H959.472C977.018 715.949 995.306 719.409 1014.34 726.329C1051.16 739.674 1076.74 765.87 1091.07 804.917C1098.24 824.44 1101.82 842.851 1101.82 860.151V868.306C1101.82 893.266 1093.66 908.959 1077.35 915.385ZM1230.5 1075.9C1221.6 1083.56 1207.76 1087.39 1188.98 1087.39C1170.44 1087.39 1156.6 1083.93 1147.46 1077.01C1138.32 1070.09 1133.74 1060.7 1133.74 1048.84V1035.49C1133.74 1029.81 1135.72 1019.92 1139.68 1005.84C1143.63 991.749 1145.85 980.751 1146.35 972.843C1146.84 964.688 1147.09 937.256 1147.09 890.548C1147.09 843.84 1146.23 812.083 1144.5 795.279L1142.64 782.675C1140.42 769.082 1139.31 759.444 1139.31 753.76C1139.31 748.076 1141.65 742.516 1146.35 737.079C1151.04 731.642 1158.83 728.923 1169.7 728.923C1180.82 728.923 1194.66 730.777 1211.22 734.484C1227.78 737.944 1241.49 739.674 1252.37 739.674C1263.49 739.674 1277.7 737.202 1295 732.26C1312.55 727.317 1328.98 724.846 1344.3 724.846C1359.87 724.846 1373.59 727.07 1385.45 731.518C1397.56 735.72 1409.67 740.909 1421.78 747.088C1434.13 753.019 1442.41 755.984 1446.61 755.984C1451.06 755.984 1465.77 749.806 1490.73 737.45C1515.69 724.846 1539.29 718.544 1561.53 718.544C1584.02 718.544 1603.67 723.857 1620.47 734.484C1637.52 744.864 1650.87 760.556 1660.51 781.563C1670.39 802.569 1675.34 853.602 1675.34 934.661C1675.34 964.07 1676.69 984.335 1679.41 995.456L1683.49 1008.06L1687.94 1019.55C1690.66 1028.45 1692.02 1038.21 1692.02 1048.84C1692.02 1059.46 1687.94 1068.73 1679.78 1076.64C1671.63 1084.3 1659.52 1088.13 1643.46 1088.13H1630.11C1605.4 1088.13 1589.95 1079.23 1583.77 1061.44C1581.3 1054.27 1580.07 1017.94 1580.07 952.455C1580.07 886.717 1576.85 846.064 1570.43 830.495C1564.25 814.926 1555.72 804.67 1544.85 799.727C1538.92 797.008 1530.76 795.649 1520.38 795.649C1510.25 795.649 1500.12 798.615 1489.99 804.546C1480.1 810.477 1472.69 820.98 1467.74 836.055C1462.8 851.13 1460.33 890.424 1460.33 953.937C1460.33 967.035 1462.31 983.346 1466.26 1002.87C1470.46 1022.39 1472.56 1033.64 1472.56 1036.6C1472.56 1058.1 1467.5 1071.94 1457.36 1078.12C1447.23 1084.05 1427.71 1087.02 1398.79 1087.02C1369.88 1087.02 1355.42 1075.77 1355.42 1053.28L1355.79 1039.2L1357.65 1025.85L1362.47 999.904C1363.45 992.49 1363.95 964.193 1363.95 915.014C1363.95 865.835 1359.5 832.719 1350.6 815.667C1341.95 798.368 1327.13 789.718 1306.12 789.718C1298.71 789.718 1289.19 792.931 1277.58 799.356C1266.21 805.534 1257.19 815.049 1250.51 827.9C1243.84 840.751 1240.51 875.349 1240.51 931.696L1244.21 1033.27C1244.21 1054.03 1239.64 1068.24 1230.5 1075.9Z" fill="black"/>
<path d="M728.839 1217V1208.49L759.574 1208.44V1235.36C754.856 1239.12 749.989 1241.96 744.974 1243.88C739.959 1245.76 734.812 1246.7 729.532 1246.7C722.405 1246.7 715.922 1245.18 710.082 1242.14C704.274 1239.07 699.886 1234.65 696.916 1228.88C693.947 1223.11 692.462 1216.65 692.462 1209.53C692.462 1202.47 693.93 1195.88 696.867 1189.78C699.837 1183.64 704.093 1179.09 709.636 1176.12C715.179 1173.15 721.564 1171.67 728.79 1171.67C734.036 1171.67 738.771 1172.52 742.994 1174.24C747.251 1175.92 750.583 1178.28 752.992 1181.32C755.401 1184.35 757.232 1188.31 758.486 1193.19L749.824 1195.57C748.736 1191.88 747.383 1188.97 745.766 1186.86C744.149 1184.75 741.84 1183.07 738.837 1181.81C735.834 1180.52 732.502 1179.88 728.839 1179.88C724.451 1179.88 720.657 1180.56 717.456 1181.91C714.255 1183.23 711.665 1184.98 709.686 1187.16C707.739 1189.33 706.221 1191.73 705.132 1194.33C703.285 1198.82 702.361 1203.69 702.361 1208.93C702.361 1215.4 703.466 1220.81 705.677 1225.17C707.92 1229.52 711.17 1232.76 715.427 1234.87C719.683 1236.98 724.204 1238.04 728.988 1238.04C733.145 1238.04 737.204 1237.24 741.163 1235.66C745.123 1234.04 748.125 1232.33 750.171 1230.51V1217H728.839ZM776.596 1245.46V1192.9H784.614V1200.87C786.66 1197.14 788.54 1194.68 790.256 1193.49C792.005 1192.3 793.919 1191.71 795.997 1191.71C799 1191.71 802.052 1192.67 805.153 1194.58L802.085 1202.85C799.907 1201.56 797.73 1200.92 795.552 1200.92C793.605 1200.92 791.856 1201.51 790.306 1202.7C788.755 1203.85 787.649 1205.47 786.99 1207.55C786 1210.72 785.505 1214.18 785.505 1217.94V1245.46H776.596ZM848.951 1245.46V1237.74C844.859 1243.68 839.3 1246.65 832.272 1246.65C829.17 1246.65 826.266 1246.05 823.561 1244.87C820.888 1243.68 818.892 1242.19 817.572 1240.41C816.285 1238.6 815.378 1236.39 814.85 1233.78C814.487 1232.03 814.306 1229.26 814.306 1225.46V1192.9H823.214V1222.05C823.214 1226.7 823.396 1229.84 823.759 1231.45C824.32 1233.8 825.508 1235.64 827.322 1237C829.137 1238.32 831.381 1238.98 834.053 1238.98C836.726 1238.98 839.234 1238.3 841.576 1236.95C843.919 1235.56 845.569 1233.7 846.526 1231.35C847.515 1228.98 848.01 1225.55 848.01 1221.06V1192.9H856.919V1245.46H848.951ZM874.98 1265.6V1192.9H883.097V1199.73C885.011 1197.06 887.172 1195.06 889.58 1193.74C891.989 1192.39 894.909 1191.71 898.341 1191.71C902.828 1191.71 906.787 1192.87 910.219 1195.17C913.651 1197.48 916.241 1200.75 917.989 1204.97C919.738 1209.16 920.613 1213.77 920.613 1218.78C920.613 1224.16 919.639 1229.01 917.692 1233.33C915.779 1237.62 912.974 1240.92 909.279 1243.23C905.616 1245.51 901.756 1246.65 897.697 1246.65C894.728 1246.65 892.055 1246.02 889.679 1244.77C887.337 1243.51 885.407 1241.93 883.889 1240.02V1265.6H874.98ZM883.047 1219.48C883.047 1226.24 884.417 1231.24 887.155 1234.47C889.894 1237.71 893.21 1239.32 897.103 1239.32C901.063 1239.32 904.445 1237.66 907.249 1234.32C910.087 1230.96 911.506 1225.76 911.506 1218.73C911.506 1212.04 910.12 1207.02 907.348 1203.69C904.61 1200.35 901.327 1198.69 897.499 1198.69C893.705 1198.69 890.339 1200.47 887.403 1204.03C884.499 1207.56 883.047 1212.71 883.047 1219.48ZM932.14 1219.18C932.14 1209.45 934.846 1202.24 940.257 1197.55C944.778 1193.66 950.288 1191.71 956.788 1191.71C964.014 1191.71 969.92 1194.09 974.506 1198.84C979.093 1203.56 981.386 1210.09 981.386 1218.44C981.386 1225.2 980.363 1230.53 978.317 1234.42C976.305 1238.28 973.351 1241.29 969.458 1243.43C965.598 1245.57 961.374 1246.65 956.788 1246.65C949.43 1246.65 943.474 1244.29 938.921 1239.57C934.401 1234.85 932.14 1228.05 932.14 1219.18ZM941.297 1219.18C941.297 1225.91 942.765 1230.96 945.701 1234.32C948.638 1237.66 952.333 1239.32 956.788 1239.32C961.209 1239.32 964.888 1237.64 967.825 1234.27C970.761 1230.91 972.23 1225.78 972.23 1218.88C972.23 1212.38 970.745 1207.47 967.775 1204.13C964.839 1200.77 961.176 1199.08 956.788 1199.08C952.333 1199.08 948.638 1200.75 945.701 1204.08C942.765 1207.42 941.297 1212.45 941.297 1219.18ZM1062.3 1245.46V1238.83C1058.97 1244.04 1054.07 1246.65 1047.6 1246.65C1043.41 1246.65 1039.55 1245.49 1036.02 1243.18C1032.52 1240.87 1029.8 1237.66 1027.85 1233.53C1025.94 1229.37 1024.98 1224.61 1024.98 1219.23C1024.98 1213.98 1025.86 1209.23 1027.6 1204.97C1029.35 1200.68 1031.98 1197.4 1035.47 1195.13C1038.97 1192.85 1042.88 1191.71 1047.2 1191.71C1050.37 1191.71 1053.19 1192.39 1055.67 1193.74C1058.14 1195.06 1060.15 1196.79 1061.7 1198.94V1172.9H1070.56V1245.46H1062.3ZM1034.14 1219.23C1034.14 1225.96 1035.56 1230.99 1038.39 1234.32C1041.23 1237.66 1044.58 1239.32 1048.44 1239.32C1052.33 1239.32 1055.63 1237.74 1058.34 1234.57C1061.08 1231.37 1062.45 1226.5 1062.45 1219.97C1062.45 1212.78 1061.06 1207.5 1058.29 1204.13C1055.52 1200.77 1052.1 1199.08 1048.04 1199.08C1044.09 1199.08 1040.77 1200.7 1038.1 1203.93C1035.46 1207.17 1034.14 1212.27 1034.14 1219.23ZM1124.66 1228.53L1133.86 1229.67C1132.41 1235.05 1129.72 1239.22 1125.79 1242.19C1121.87 1245.16 1116.85 1246.65 1110.75 1246.65C1103.06 1246.65 1096.96 1244.29 1092.44 1239.57C1087.95 1234.82 1085.71 1228.17 1085.71 1219.62C1085.71 1210.78 1087.98 1203.92 1092.54 1199.04C1097.09 1194.15 1102.99 1191.71 1110.25 1191.71C1117.28 1191.71 1123.02 1194.1 1127.48 1198.89C1131.93 1203.67 1134.16 1210.4 1134.16 1219.08C1134.16 1219.61 1134.14 1220.4 1134.11 1221.46H1094.91C1095.24 1227.23 1096.87 1231.65 1099.81 1234.72C1102.75 1237.79 1106.41 1239.32 1110.8 1239.32C1114.06 1239.32 1116.85 1238.46 1119.16 1236.75C1121.47 1235.03 1123.3 1232.29 1124.66 1228.53ZM1095.41 1214.13H1124.75C1124.36 1209.71 1123.24 1206.39 1121.39 1204.18C1118.55 1200.75 1114.87 1199.04 1110.35 1199.04C1106.26 1199.04 1102.81 1200.4 1100.01 1203.14C1097.24 1205.88 1095.7 1209.54 1095.41 1214.13ZM1217.4 1228.53L1226.6 1229.67C1225.15 1235.05 1222.46 1239.22 1218.54 1242.19C1214.61 1245.16 1209.59 1246.65 1203.49 1246.65C1195.8 1246.65 1189.7 1244.29 1185.18 1239.57C1180.69 1234.82 1178.45 1228.17 1178.45 1219.62C1178.45 1210.78 1180.72 1203.92 1185.28 1199.04C1189.83 1194.15 1195.74 1191.71 1203 1191.71C1210.02 1191.71 1215.76 1194.1 1220.22 1198.89C1224.67 1203.67 1226.9 1210.4 1226.9 1219.08C1226.9 1219.61 1226.88 1220.4 1226.85 1221.46H1187.65C1187.98 1227.23 1189.62 1231.65 1192.55 1234.72C1195.49 1237.79 1199.15 1239.32 1203.54 1239.32C1206.81 1239.32 1209.59 1238.46 1211.9 1236.75C1214.21 1235.03 1216.04 1232.29 1217.4 1228.53ZM1188.15 1214.13H1217.5C1217.1 1209.71 1215.98 1206.39 1214.13 1204.18C1211.29 1200.75 1207.61 1199.04 1203.09 1199.04C1199 1199.04 1195.55 1200.4 1192.75 1203.14C1189.98 1205.88 1188.44 1209.54 1188.15 1214.13ZM1238.33 1229.77L1247.14 1228.38C1247.63 1231.91 1249 1234.62 1251.25 1236.5C1253.52 1238.38 1256.69 1239.32 1260.75 1239.32C1264.84 1239.32 1267.88 1238.5 1269.86 1236.85C1271.84 1235.16 1272.83 1233.2 1272.83 1230.96C1272.83 1228.95 1271.95 1227.36 1270.2 1226.21C1268.98 1225.41 1265.95 1224.41 1261.1 1223.19C1254.56 1221.54 1250.03 1220.12 1247.49 1218.93C1244.98 1217.71 1243.06 1216.04 1241.74 1213.93C1240.46 1211.79 1239.81 1209.43 1239.81 1206.86C1239.81 1204.51 1240.34 1202.35 1241.4 1200.37C1242.49 1198.36 1243.95 1196.69 1245.8 1195.37C1247.19 1194.35 1249.07 1193.49 1251.44 1192.8C1253.85 1192.07 1256.43 1191.71 1259.17 1191.71C1263.29 1191.71 1266.9 1192.3 1270 1193.49C1273.14 1194.68 1275.45 1196.3 1276.93 1198.34C1278.42 1200.35 1279.44 1203.06 1280 1206.46L1271.29 1207.65C1270.9 1204.94 1269.74 1202.83 1267.83 1201.31C1265.95 1199.79 1263.27 1199.04 1259.81 1199.04C1255.72 1199.04 1252.8 1199.71 1251.05 1201.06C1249.3 1202.42 1248.43 1204 1248.43 1205.82C1248.43 1206.97 1248.79 1208.01 1249.51 1208.93C1250.24 1209.89 1251.38 1210.68 1252.93 1211.31C1253.82 1211.64 1256.44 1212.4 1260.8 1213.59C1267.1 1215.27 1271.49 1216.65 1273.96 1217.74C1276.47 1218.8 1278.43 1220.35 1279.85 1222.4C1281.27 1224.44 1281.98 1226.98 1281.98 1230.02C1281.98 1232.99 1281.11 1235.79 1279.36 1238.43C1277.64 1241.04 1275.15 1243.07 1271.89 1244.52C1268.62 1245.94 1264.92 1246.65 1260.8 1246.65C1253.97 1246.65 1248.76 1245.23 1245.16 1242.39C1241.6 1239.55 1239.32 1235.35 1238.33 1229.77ZM1316.08 1237.49L1317.37 1245.36C1314.86 1245.89 1312.61 1246.15 1310.63 1246.15C1307.4 1246.15 1304.89 1245.64 1303.11 1244.62C1301.33 1243.6 1300.08 1242.26 1299.35 1240.61C1298.62 1238.93 1298.26 1235.41 1298.26 1230.07V1199.83H1291.73V1192.9H1298.26V1179.88L1307.12 1174.54V1192.9H1316.08V1199.83H1307.12V1230.56C1307.12 1233.1 1307.27 1234.74 1307.57 1235.46C1307.9 1236.19 1308.41 1236.77 1309.1 1237.19C1309.83 1237.62 1310.85 1237.84 1312.17 1237.84C1313.16 1237.84 1314.46 1237.72 1316.08 1237.49ZM1363.34 1245.46V1237.74C1359.25 1243.68 1353.69 1246.65 1346.66 1246.65C1343.56 1246.65 1340.66 1246.05 1337.95 1244.87C1335.28 1243.68 1333.28 1242.19 1331.96 1240.41C1330.68 1238.6 1329.77 1236.39 1329.24 1233.78C1328.88 1232.03 1328.7 1229.26 1328.7 1225.46V1192.9H1337.6V1222.05C1337.6 1226.7 1337.79 1229.84 1338.15 1231.45C1338.71 1233.8 1339.9 1235.64 1341.71 1237C1343.53 1238.32 1345.77 1238.98 1348.44 1238.98C1351.12 1238.98 1353.62 1238.3 1355.97 1236.95C1358.31 1235.56 1359.96 1233.7 1360.92 1231.35C1361.91 1228.98 1362.4 1225.55 1362.4 1221.06V1192.9H1371.31V1245.46H1363.34ZM1423.47 1245.46V1238.83C1420.14 1244.04 1415.24 1246.65 1408.77 1246.65C1404.58 1246.65 1400.72 1245.49 1397.19 1243.18C1393.69 1240.87 1390.97 1237.66 1389.02 1233.53C1387.11 1229.37 1386.15 1224.61 1386.15 1219.23C1386.15 1213.98 1387.03 1209.23 1388.78 1204.97C1390.52 1200.68 1393.15 1197.4 1396.65 1195.13C1400.14 1192.85 1404.05 1191.71 1408.37 1191.71C1411.54 1191.71 1414.36 1192.39 1416.84 1193.74C1419.31 1195.06 1421.33 1196.79 1422.88 1198.94V1172.9H1431.74V1245.46H1423.47ZM1395.31 1219.23C1395.31 1225.96 1396.73 1230.99 1399.57 1234.32C1402.4 1237.66 1405.75 1239.32 1409.61 1239.32C1413.51 1239.32 1416.81 1237.74 1419.51 1234.57C1422.25 1231.37 1423.62 1226.5 1423.62 1219.97C1423.62 1212.78 1422.23 1207.5 1419.46 1204.13C1416.69 1200.77 1413.27 1199.08 1409.22 1199.08C1405.26 1199.08 1401.94 1200.7 1399.27 1203.93C1396.63 1207.17 1395.31 1212.27 1395.31 1219.23ZM1446.53 1219.18C1446.53 1209.45 1449.24 1202.24 1454.65 1197.55C1459.17 1193.66 1464.68 1191.71 1471.18 1191.71C1478.4 1191.71 1484.31 1194.09 1488.9 1198.84C1493.48 1203.56 1495.78 1210.09 1495.78 1218.44C1495.78 1225.2 1494.75 1230.53 1492.71 1234.42C1490.69 1238.28 1487.74 1241.29 1483.85 1243.43C1479.99 1245.57 1475.76 1246.65 1471.18 1246.65C1463.82 1246.65 1457.86 1244.29 1453.31 1239.57C1448.79 1234.85 1446.53 1228.05 1446.53 1219.18ZM1455.69 1219.18C1455.69 1225.91 1457.15 1230.96 1460.09 1234.32C1463.03 1237.66 1466.72 1239.32 1471.18 1239.32C1475.6 1239.32 1479.28 1237.64 1482.21 1234.27C1485.15 1230.91 1486.62 1225.78 1486.62 1218.88C1486.62 1212.38 1485.13 1207.47 1482.16 1204.13C1479.23 1200.77 1475.57 1199.08 1471.18 1199.08C1466.72 1199.08 1463.03 1200.75 1460.09 1204.08C1457.15 1207.42 1455.69 1212.45 1455.69 1219.18ZM1506.76 1229.77L1515.57 1228.38C1516.06 1231.91 1517.43 1234.62 1519.68 1236.5C1521.95 1238.38 1525.12 1239.32 1529.18 1239.32C1533.27 1239.32 1536.31 1238.5 1538.29 1236.85C1540.27 1235.16 1541.26 1233.2 1541.26 1230.96C1541.26 1228.95 1540.38 1227.36 1538.63 1226.21C1537.41 1225.41 1534.38 1224.41 1529.53 1223.19C1522.99 1221.54 1518.46 1220.12 1515.92 1218.93C1513.41 1217.71 1511.49 1216.04 1510.17 1213.93C1508.89 1211.79 1508.24 1209.43 1508.24 1206.86C1508.24 1204.51 1508.77 1202.35 1509.83 1200.37C1510.92 1198.36 1512.38 1196.69 1514.23 1195.37C1515.62 1194.35 1517.5 1193.49 1519.87 1192.8C1522.28 1192.07 1524.86 1191.71 1527.6 1191.71C1531.72 1191.71 1535.33 1192.3 1538.43 1193.49C1541.57 1194.68 1543.88 1196.3 1545.36 1198.34C1546.85 1200.35 1547.87 1203.06 1548.43 1206.46L1539.72 1207.65C1539.33 1204.94 1538.17 1202.83 1536.26 1201.31C1534.38 1199.79 1531.7 1199.04 1528.24 1199.04C1524.15 1199.04 1521.23 1199.71 1519.48 1201.06C1517.73 1202.42 1516.86 1204 1516.86 1205.82C1516.86 1206.97 1517.22 1208.01 1517.94 1208.93C1518.67 1209.89 1519.81 1210.68 1521.36 1211.31C1522.25 1211.64 1524.87 1212.4 1529.23 1213.59C1535.53 1215.27 1539.92 1216.65 1542.39 1217.74C1544.9 1218.8 1546.86 1220.35 1548.28 1222.4C1549.7 1224.44 1550.41 1226.98 1550.41 1230.02C1550.41 1232.99 1549.54 1235.79 1547.79 1238.43C1546.07 1241.04 1543.58 1243.07 1540.32 1244.52C1537.05 1245.94 1533.35 1246.65 1529.23 1246.65C1522.4 1246.65 1517.19 1245.23 1513.59 1242.39C1510.03 1239.55 1507.75 1235.35 1506.76 1229.77ZM1633.3 1228.53L1642.51 1229.67C1641.06 1235.05 1638.37 1239.22 1634.44 1242.19C1630.52 1245.16 1625.5 1246.65 1619.4 1246.65C1611.71 1246.65 1605.6 1244.29 1601.08 1239.57C1596.6 1234.82 1594.35 1228.17 1594.35 1219.62C1594.35 1210.78 1596.63 1203.92 1601.18 1199.04C1605.74 1194.15 1611.64 1191.71 1618.9 1191.71C1625.93 1191.71 1631.67 1194.1 1636.13 1198.89C1640.58 1203.67 1642.81 1210.4 1642.81 1219.08C1642.81 1219.61 1642.79 1220.4 1642.76 1221.46H1603.56C1603.89 1227.23 1605.52 1231.65 1608.46 1234.72C1611.4 1237.79 1615.06 1239.32 1619.45 1239.32C1622.71 1239.32 1625.5 1238.46 1627.81 1236.75C1630.12 1235.03 1631.95 1232.29 1633.3 1228.53ZM1604.05 1214.13H1633.4C1633.01 1209.71 1631.89 1206.39 1630.04 1204.18C1627.2 1200.75 1623.52 1199.04 1619 1199.04C1614.91 1199.04 1611.46 1200.4 1608.66 1203.14C1605.89 1205.88 1604.35 1209.54 1604.05 1214.13ZM1657.8 1245.46V1192.9H1665.77V1200.27C1667.42 1197.7 1669.61 1195.64 1672.35 1194.09C1675.09 1192.5 1678.21 1191.71 1681.7 1191.71C1685.6 1191.71 1688.78 1192.52 1691.26 1194.14C1693.76 1195.75 1695.53 1198.01 1696.55 1200.92C1700.71 1194.78 1706.12 1191.71 1712.79 1191.71C1718 1191.71 1722.01 1193.16 1724.81 1196.07C1727.62 1198.94 1729.02 1203.37 1729.02 1209.38V1245.46H1720.16V1212.35C1720.16 1208.79 1719.86 1206.23 1719.27 1204.68C1718.71 1203.09 1717.67 1201.82 1716.15 1200.87C1714.63 1199.91 1712.85 1199.43 1710.81 1199.43C1707.11 1199.43 1704.04 1200.67 1701.6 1203.14C1699.16 1205.58 1697.94 1209.51 1697.94 1214.92V1245.46H1689.03V1211.31C1689.03 1207.35 1688.3 1204.38 1686.85 1202.4C1685.4 1200.42 1683.02 1199.43 1679.72 1199.43C1677.22 1199.43 1674.89 1200.09 1672.75 1201.41C1670.63 1202.73 1669.1 1204.66 1668.14 1207.2C1667.19 1209.74 1666.71 1213.4 1666.71 1218.19V1245.46H1657.8ZM693.749 1340.46V1287.9H701.717V1295.27C703.367 1292.7 705.561 1290.64 708.3 1289.09C711.038 1287.5 714.156 1286.71 717.654 1286.71C721.547 1286.71 724.731 1287.52 727.206 1289.14C729.714 1290.75 731.479 1293.01 732.502 1295.92C736.659 1289.78 742.07 1286.71 748.736 1286.71C753.949 1286.71 757.958 1288.16 760.762 1291.07C763.567 1293.94 764.969 1298.37 764.969 1304.38V1340.46H756.11V1307.35C756.11 1303.79 755.813 1301.23 755.219 1299.68C754.658 1298.09 753.619 1296.82 752.101 1295.87C750.583 1294.91 748.802 1294.43 746.756 1294.43C743.06 1294.43 739.992 1295.67 737.55 1298.14C735.108 1300.58 733.888 1304.51 733.888 1309.92V1340.46H724.979V1306.31C724.979 1302.35 724.253 1299.38 722.801 1297.4C721.349 1295.42 718.974 1294.43 715.674 1294.43C713.167 1294.43 710.84 1295.09 708.696 1296.41C706.584 1297.73 705.05 1299.66 704.093 1302.2C703.136 1304.74 702.658 1308.4 702.658 1313.19V1340.46H693.749ZM818.22 1323.53L827.425 1324.67C825.974 1330.05 823.284 1334.22 819.358 1337.19C815.432 1340.16 810.416 1341.65 804.312 1341.65C796.624 1341.65 790.52 1339.29 786 1334.57C781.512 1329.82 779.269 1323.17 779.269 1314.62C779.269 1305.78 781.545 1298.92 786.099 1294.04C790.652 1289.15 796.558 1286.71 803.817 1286.71C810.845 1286.71 816.586 1289.1 821.041 1293.89C825.495 1298.67 827.722 1305.4 827.722 1314.08C827.722 1314.61 827.706 1315.4 827.673 1316.46H788.474C788.804 1322.23 790.438 1326.65 793.374 1329.72C796.311 1332.79 799.973 1334.32 804.362 1334.32C807.628 1334.32 810.416 1333.46 812.726 1331.75C815.036 1330.03 816.867 1327.29 818.22 1323.53ZM788.969 1309.13H818.319C817.923 1304.71 816.801 1301.39 814.953 1299.18C812.115 1295.75 808.437 1294.04 803.916 1294.04C799.825 1294.04 796.377 1295.4 793.572 1298.14C790.801 1300.88 789.266 1304.54 788.969 1309.13ZM842.517 1340.46V1267.9H851.425V1340.46H842.517ZM869.338 1340.46V1267.9H878.247V1293.94C882.404 1289.12 887.65 1286.71 893.985 1286.71C897.879 1286.71 901.261 1287.49 904.131 1289.04C907.002 1290.55 909.048 1292.67 910.268 1295.37C911.522 1298.08 912.149 1302 912.149 1307.15V1340.46H903.241V1307.15C903.241 1302.7 902.267 1299.46 900.32 1297.45C898.407 1295.4 895.685 1294.38 892.154 1294.38C889.514 1294.38 887.023 1295.07 884.681 1296.46C882.371 1297.81 880.721 1299.66 879.731 1302C878.742 1304.35 878.247 1307.58 878.247 1311.7V1340.46H869.338ZM926.498 1314.18C926.498 1304.45 929.204 1297.24 934.615 1292.55C939.135 1288.66 944.646 1286.71 951.146 1286.71C958.372 1286.71 964.278 1289.09 968.864 1293.84C973.45 1298.56 975.744 1305.09 975.744 1313.44C975.744 1320.2 974.721 1325.53 972.675 1329.42C970.662 1333.28 967.709 1336.29 963.816 1338.43C959.955 1340.57 955.732 1341.65 951.146 1341.65C943.788 1341.65 937.832 1339.29 933.279 1334.57C928.758 1329.85 926.498 1323.05 926.498 1314.18ZM935.654 1314.18C935.654 1320.91 937.123 1325.96 940.059 1329.32C942.996 1332.66 946.691 1334.32 951.146 1334.32C955.567 1334.32 959.246 1332.64 962.183 1329.27C965.119 1325.91 966.587 1320.78 966.587 1313.88C966.587 1307.38 965.103 1302.47 962.133 1299.13C959.197 1295.77 955.534 1294.08 951.146 1294.08C946.691 1294.08 942.996 1295.75 940.059 1299.08C937.123 1302.42 935.654 1307.45 935.654 1314.18ZM990.192 1340.46V1287.9H998.209V1295.87C1000.26 1292.14 1002.14 1289.68 1003.85 1288.49C1005.6 1287.3 1007.51 1286.71 1009.59 1286.71C1012.6 1286.71 1015.65 1287.67 1018.75 1289.58L1015.68 1297.85C1013.5 1296.56 1011.33 1295.92 1009.15 1295.92C1007.2 1295.92 1005.45 1296.51 1003.9 1297.7C1002.35 1298.85 1001.25 1300.47 1000.59 1302.55C999.595 1305.72 999.1 1309.18 999.1 1312.94V1340.46H990.192ZM1062.4 1333.98C1059.1 1336.78 1055.91 1338.76 1052.85 1339.92C1049.81 1341.07 1046.54 1341.65 1043.05 1341.65C1037.27 1341.65 1032.83 1340.25 1029.73 1337.44C1026.63 1334.6 1025.08 1330.99 1025.08 1326.6C1025.08 1324.03 1025.66 1321.69 1026.81 1319.57C1028 1317.43 1029.53 1315.71 1031.42 1314.43C1033.33 1313.14 1035.47 1312.17 1037.85 1311.51C1039.6 1311.04 1042.24 1310.6 1045.77 1310.17C1052.96 1309.31 1058.26 1308.29 1061.66 1307.1C1061.69 1305.88 1061.7 1305.11 1061.7 1304.78C1061.7 1301.15 1060.86 1298.59 1059.18 1297.1C1056.9 1295.09 1053.52 1294.08 1049.03 1294.08C1044.84 1294.08 1041.74 1294.83 1039.73 1296.31C1037.75 1297.76 1036.28 1300.35 1035.33 1304.08L1026.61 1302.89C1027.41 1299.17 1028.71 1296.16 1030.52 1293.89C1032.34 1291.58 1034.96 1289.81 1038.39 1288.59C1041.83 1287.34 1045.8 1286.71 1050.32 1286.71C1054.81 1286.71 1058.45 1287.24 1061.26 1288.29C1064.06 1289.35 1066.13 1290.69 1067.45 1292.3C1068.77 1293.89 1069.69 1295.9 1070.22 1298.34C1070.51 1299.86 1070.66 1302.6 1070.66 1306.56V1318.44C1070.66 1326.72 1070.84 1331.96 1071.21 1334.17C1071.6 1336.35 1072.36 1338.45 1073.48 1340.46H1064.18C1063.26 1338.61 1062.66 1336.45 1062.4 1333.98ZM1061.66 1314.08C1058.42 1315.4 1053.57 1316.52 1047.1 1317.45C1043.44 1317.97 1040.85 1318.57 1039.33 1319.23C1037.82 1319.89 1036.64 1320.86 1035.82 1322.15C1035 1323.4 1034.58 1324.8 1034.58 1326.35C1034.58 1328.73 1035.47 1330.71 1037.26 1332.29C1039.07 1333.88 1041.71 1334.67 1045.17 1334.67C1048.61 1334.67 1051.66 1333.93 1054.33 1332.44C1057 1330.92 1058.97 1328.86 1060.22 1326.26C1061.18 1324.24 1061.66 1321.27 1061.66 1317.35V1314.08ZM1088.58 1340.46V1287.9H1096.54V1295.27C1098.19 1292.7 1100.39 1290.64 1103.13 1289.09C1105.87 1287.5 1108.98 1286.71 1112.48 1286.71C1116.37 1286.71 1119.56 1287.52 1122.03 1289.14C1124.54 1290.75 1126.31 1293.01 1127.33 1295.92C1131.49 1289.78 1136.9 1286.71 1143.56 1286.71C1148.78 1286.71 1152.78 1288.16 1155.59 1291.07C1158.39 1293.94 1159.8 1298.37 1159.8 1304.38V1340.46H1150.94V1307.35C1150.94 1303.79 1150.64 1301.23 1150.05 1299.68C1149.48 1298.09 1148.45 1296.82 1146.93 1295.87C1145.41 1294.91 1143.63 1294.43 1141.58 1294.43C1137.89 1294.43 1134.82 1295.67 1132.38 1298.14C1129.94 1300.58 1128.71 1304.51 1128.71 1309.92V1340.46H1119.81V1306.31C1119.81 1302.35 1119.08 1299.38 1117.63 1297.4C1116.18 1295.42 1113.8 1294.43 1110.5 1294.43C1107.99 1294.43 1105.67 1295.09 1103.52 1296.41C1101.41 1297.73 1099.88 1299.66 1098.92 1302.2C1097.96 1304.74 1097.48 1308.4 1097.48 1313.19V1340.46H1088.58ZM1213.05 1323.53L1222.25 1324.67C1220.8 1330.05 1218.11 1334.22 1214.18 1337.19C1210.26 1340.16 1205.24 1341.65 1199.14 1341.65C1191.45 1341.65 1185.35 1339.29 1180.83 1334.57C1176.34 1329.82 1174.1 1323.17 1174.1 1314.62C1174.1 1305.78 1176.37 1298.92 1180.93 1294.04C1185.48 1289.15 1191.38 1286.71 1198.64 1286.71C1205.67 1286.71 1211.41 1289.1 1215.87 1293.89C1220.32 1298.67 1222.55 1305.4 1222.55 1314.08C1222.55 1314.61 1222.53 1315.4 1222.5 1316.46H1183.3C1183.63 1322.23 1185.26 1326.65 1188.2 1329.72C1191.14 1332.79 1194.8 1334.32 1199.19 1334.32C1202.45 1334.32 1205.24 1333.46 1207.55 1331.75C1209.86 1330.03 1211.69 1327.29 1213.05 1323.53ZM1183.8 1309.13H1213.15C1212.75 1304.71 1211.63 1301.39 1209.78 1299.18C1206.94 1295.75 1203.26 1294.04 1198.74 1294.04C1194.65 1294.04 1191.2 1295.4 1188.4 1298.14C1185.63 1300.88 1184.09 1304.54 1183.8 1309.13ZM1237.54 1340.46V1287.9H1245.56V1295.37C1249.42 1289.6 1255 1286.71 1262.29 1286.71C1265.46 1286.71 1268.36 1287.29 1271 1288.44C1273.67 1289.56 1275.67 1291.05 1276.99 1292.9C1278.31 1294.74 1279.23 1296.94 1279.76 1299.48C1280.09 1301.13 1280.25 1304.02 1280.25 1308.14V1340.46H1271.34V1308.49C1271.34 1304.86 1271 1302.15 1270.31 1300.37C1269.61 1298.56 1268.38 1297.12 1266.59 1296.06C1264.84 1294.98 1262.78 1294.43 1260.41 1294.43C1256.61 1294.43 1253.33 1295.64 1250.56 1298.04C1247.82 1300.45 1246.45 1305.02 1246.45 1311.75V1340.46H1237.54ZM1317.47 1332.49L1318.76 1340.36C1316.25 1340.89 1314 1341.15 1312.02 1341.15C1308.79 1341.15 1306.28 1340.64 1304.5 1339.62C1302.72 1338.6 1301.47 1337.26 1300.74 1335.61C1300.01 1333.93 1299.65 1330.41 1299.65 1325.07V1294.83H1293.12V1287.9H1299.65V1274.88L1308.51 1269.54V1287.9H1317.47V1294.83H1308.51V1325.56C1308.51 1328.1 1308.66 1329.74 1308.96 1330.46C1309.29 1331.19 1309.8 1331.77 1310.49 1332.19C1311.22 1332.62 1312.24 1332.84 1313.56 1332.84C1314.55 1332.84 1315.85 1332.72 1317.47 1332.49ZM1326.97 1314.18C1326.97 1304.45 1329.67 1297.24 1335.08 1292.55C1339.6 1288.66 1345.11 1286.71 1351.61 1286.71C1358.84 1286.71 1364.75 1289.09 1369.33 1293.84C1373.92 1298.56 1376.21 1305.09 1376.21 1313.44C1376.21 1320.2 1375.19 1325.53 1373.14 1329.42C1371.13 1333.28 1368.18 1336.29 1364.28 1338.43C1360.42 1340.57 1356.2 1341.65 1351.61 1341.65C1344.26 1341.65 1338.3 1339.29 1333.75 1334.57C1329.23 1329.85 1326.97 1323.05 1326.97 1314.18ZM1336.12 1314.18C1336.12 1320.91 1337.59 1325.96 1340.53 1329.32C1343.46 1332.66 1347.16 1334.32 1351.61 1334.32C1356.04 1334.32 1359.71 1332.64 1362.65 1329.27C1365.59 1325.91 1367.06 1320.78 1367.06 1313.88C1367.06 1307.38 1365.57 1302.47 1362.6 1299.13C1359.67 1295.77 1356 1294.08 1351.61 1294.08C1347.16 1294.08 1343.46 1295.75 1340.53 1299.08C1337.59 1302.42 1336.12 1307.45 1336.12 1314.18ZM1457.32 1333.98C1454.02 1336.78 1450.84 1338.76 1447.77 1339.92C1444.74 1341.07 1441.47 1341.65 1437.97 1341.65C1432.2 1341.65 1427.76 1340.25 1424.66 1337.44C1421.56 1334.6 1420.01 1330.99 1420.01 1326.6C1420.01 1324.03 1420.58 1321.69 1421.74 1319.57C1422.93 1317.43 1424.46 1315.71 1426.34 1314.43C1428.25 1313.14 1430.4 1312.17 1432.77 1311.51C1434.52 1311.04 1437.16 1310.6 1440.69 1310.17C1447.89 1309.31 1453.18 1308.29 1456.58 1307.1C1456.61 1305.88 1456.63 1305.11 1456.63 1304.78C1456.63 1301.15 1455.79 1298.59 1454.11 1297.1C1451.83 1295.09 1448.45 1294.08 1443.96 1294.08C1439.77 1294.08 1436.67 1294.83 1434.66 1296.31C1432.68 1297.76 1431.21 1300.35 1430.25 1304.08L1421.54 1302.89C1422.33 1299.17 1423.64 1296.16 1425.45 1293.89C1427.26 1291.58 1429.89 1289.81 1433.32 1288.59C1436.75 1287.34 1440.73 1286.71 1445.25 1286.71C1449.73 1286.71 1453.38 1287.24 1456.19 1288.29C1458.99 1289.35 1461.05 1290.69 1462.37 1292.3C1463.69 1293.89 1464.62 1295.9 1465.14 1298.34C1465.44 1299.86 1465.59 1302.6 1465.59 1306.56V1318.44C1465.59 1326.72 1465.77 1331.96 1466.13 1334.17C1466.53 1336.35 1467.29 1338.45 1468.41 1340.46H1459.11C1458.18 1338.61 1457.59 1336.45 1457.32 1333.98ZM1456.58 1314.08C1453.35 1315.4 1448.5 1316.52 1442.03 1317.45C1438.37 1317.97 1435.78 1318.57 1434.26 1319.23C1432.74 1319.89 1431.57 1320.86 1430.75 1322.15C1429.92 1323.4 1429.51 1324.8 1429.51 1326.35C1429.51 1328.73 1430.4 1330.71 1432.18 1332.29C1434 1333.88 1436.64 1334.67 1440.1 1334.67C1443.53 1334.67 1446.58 1333.93 1449.26 1332.44C1451.93 1330.92 1453.89 1328.86 1455.15 1326.26C1456.1 1324.24 1456.58 1321.27 1456.58 1317.35V1314.08ZM1483.5 1340.46V1287.9H1491.52V1295.37C1495.38 1289.6 1500.96 1286.71 1508.25 1286.71C1511.42 1286.71 1514.32 1287.29 1516.96 1288.44C1519.63 1289.56 1521.63 1291.05 1522.95 1292.9C1524.27 1294.74 1525.19 1296.94 1525.72 1299.48C1526.05 1301.13 1526.21 1304.02 1526.21 1308.14V1340.46H1517.3V1308.49C1517.3 1304.86 1516.96 1302.15 1516.27 1300.37C1515.57 1298.56 1514.34 1297.12 1512.55 1296.06C1510.8 1294.98 1508.74 1294.43 1506.37 1294.43C1502.57 1294.43 1499.29 1295.64 1496.52 1298.04C1493.78 1300.45 1492.41 1305.02 1492.41 1311.75V1340.46H1483.5ZM1544.03 1278.15V1267.9H1552.94V1278.15H1544.03ZM1544.03 1340.46V1287.9H1552.94V1340.46H1544.03ZM1570.6 1340.46V1287.9H1578.57V1295.27C1580.22 1292.7 1582.41 1290.64 1585.15 1289.09C1587.89 1287.5 1591.01 1286.71 1594.51 1286.71C1598.4 1286.71 1601.58 1287.52 1604.06 1289.14C1606.57 1290.75 1608.33 1293.01 1609.35 1295.92C1613.51 1289.78 1618.92 1286.71 1625.59 1286.71C1630.8 1286.71 1634.81 1288.16 1637.61 1291.07C1640.42 1293.94 1641.82 1298.37 1641.82 1304.38V1340.46H1632.96V1307.35C1632.96 1303.79 1632.66 1301.23 1632.07 1299.68C1631.51 1298.09 1630.47 1296.82 1628.95 1295.87C1627.44 1294.91 1625.65 1294.43 1623.61 1294.43C1619.91 1294.43 1616.84 1295.67 1614.4 1298.14C1611.96 1300.58 1610.74 1304.51 1610.74 1309.92V1340.46H1601.83V1306.31C1601.83 1302.35 1601.1 1299.38 1599.65 1297.4C1598.2 1295.42 1595.83 1294.43 1592.53 1294.43C1590.02 1294.43 1587.69 1295.09 1585.55 1296.41C1583.44 1297.73 1581.9 1299.66 1580.94 1302.2C1579.99 1304.74 1579.51 1308.4 1579.51 1313.19V1340.46H1570.6ZM1693.39 1333.98C1690.09 1336.78 1686.91 1338.76 1683.84 1339.92C1680.8 1341.07 1677.53 1341.65 1674.04 1341.65C1668.26 1341.65 1663.82 1340.25 1660.72 1337.44C1657.62 1334.6 1656.07 1330.99 1656.07 1326.6C1656.07 1324.03 1656.65 1321.69 1657.8 1319.57C1658.99 1317.43 1660.53 1315.71 1662.41 1314.43C1664.32 1313.14 1666.46 1312.17 1668.84 1311.51C1670.59 1311.04 1673.23 1310.6 1676.76 1310.17C1683.95 1309.31 1689.25 1308.29 1692.65 1307.1C1692.68 1305.88 1692.7 1305.11 1692.7 1304.78C1692.7 1301.15 1691.85 1298.59 1690.17 1297.1C1687.9 1295.09 1684.51 1294.08 1680.03 1294.08C1675.84 1294.08 1672.73 1294.83 1670.72 1296.31C1668.74 1297.76 1667.27 1300.35 1666.32 1304.08L1657.61 1302.89C1658.4 1299.17 1659.7 1296.16 1661.52 1293.89C1663.33 1291.58 1665.95 1289.81 1669.38 1288.59C1672.82 1287.34 1676.79 1286.71 1681.31 1286.71C1685.8 1286.71 1689.45 1287.24 1692.25 1288.29C1695.06 1289.35 1697.12 1290.69 1698.44 1292.3C1699.76 1293.89 1700.68 1295.9 1701.21 1298.34C1701.51 1299.86 1701.65 1302.6 1701.65 1306.56V1318.44C1701.65 1326.72 1701.84 1331.96 1702.2 1334.17C1702.59 1336.35 1703.35 1338.45 1704.48 1340.46H1695.17C1694.25 1338.61 1693.65 1336.45 1693.39 1333.98ZM1692.65 1314.08C1689.41 1315.4 1684.56 1316.52 1678.1 1317.45C1674.43 1317.97 1671.84 1318.57 1670.33 1319.23C1668.81 1319.89 1667.64 1320.86 1666.81 1322.15C1665.99 1323.4 1665.57 1324.8 1665.57 1326.35C1665.57 1328.73 1666.46 1330.71 1668.25 1332.29C1670.06 1333.88 1672.7 1334.67 1676.17 1334.67C1679.6 1334.67 1682.65 1333.93 1685.32 1332.44C1687.99 1330.92 1689.96 1328.86 1691.21 1326.26C1692.17 1324.24 1692.65 1321.27 1692.65 1317.35V1314.08ZM1719.37 1340.46V1267.9H1728.28V1340.46H1719.37ZM1827.21 1267.9H1836.81V1309.82C1836.81 1317.12 1835.98 1322.91 1834.33 1327.2C1832.68 1331.48 1829.7 1334.98 1825.37 1337.69C1821.09 1340.36 1815.44 1341.7 1808.45 1341.7C1801.65 1341.7 1796.09 1340.53 1791.77 1338.18C1787.45 1335.84 1784.36 1332.46 1782.51 1328.04C1780.67 1323.58 1779.74 1317.51 1779.74 1309.82V1267.9H1789.34V1309.77C1789.34 1316.08 1789.92 1320.73 1791.08 1323.73C1792.26 1326.7 1794.28 1328.99 1797.11 1330.61C1799.98 1332.23 1803.48 1333.04 1807.61 1333.04C1814.67 1333.04 1819.7 1331.44 1822.7 1328.23C1825.7 1325.03 1827.21 1318.88 1827.21 1309.77V1267.9ZM1857.39 1340.46V1267.9H1906.34V1276.47H1866.99V1298.93H1901.05V1307.5H1866.99V1340.46H1857.39ZM1922.52 1340.46V1267.9H1949.74C1955.29 1267.9 1959.72 1268.65 1963.06 1270.13C1966.42 1271.58 1969.04 1273.84 1970.93 1276.91C1972.84 1279.95 1973.8 1283.13 1973.8 1286.46C1973.8 1289.56 1972.95 1292.48 1971.27 1295.22C1969.59 1297.96 1967.05 1300.17 1963.65 1301.86C1968.04 1303.14 1971.4 1305.34 1973.75 1308.44C1976.12 1311.54 1977.31 1315.2 1977.31 1319.42C1977.31 1322.82 1976.58 1325.99 1975.13 1328.93C1973.71 1331.83 1971.95 1334.07 1969.84 1335.66C1967.72 1337.24 1965.07 1338.45 1961.87 1339.27C1958.7 1340.06 1954.81 1340.46 1950.19 1340.46H1922.52ZM1932.12 1298.39H1947.81C1952.07 1298.39 1955.12 1298.11 1956.97 1297.55C1959.41 1296.82 1961.24 1295.62 1962.46 1293.94C1963.72 1292.25 1964.34 1290.14 1964.34 1287.6C1964.34 1285.19 1963.77 1283.08 1962.61 1281.27C1961.46 1279.42 1959.81 1278.16 1957.66 1277.5C1955.52 1276.81 1951.84 1276.47 1946.62 1276.47H1932.12V1298.39ZM1932.12 1331.9H1950.19C1953.29 1331.9 1955.47 1331.78 1956.72 1331.55C1958.93 1331.15 1960.78 1330.49 1962.26 1329.57C1963.75 1328.65 1964.97 1327.31 1965.93 1325.56C1966.88 1323.78 1967.36 1321.73 1967.36 1319.42C1967.36 1316.72 1966.67 1314.38 1965.28 1312.4C1963.9 1310.38 1961.97 1308.98 1959.49 1308.19C1957.05 1307.37 1953.52 1306.95 1948.9 1306.95H1932.12V1331.9ZM1986.61 1340.46L2014.47 1267.9H2024.82L2054.51 1340.46H2043.58L2035.11 1318.48H2004.77L1996.81 1340.46H1986.61ZM2007.55 1310.66H2032.14L2024.57 1290.57C2022.26 1284.47 2020.55 1279.45 2019.42 1275.52C2018.5 1280.18 2017.2 1284.8 2015.51 1289.38L2007.55 1310.66Z" fill="black"/>
<path d="M668.321 1323.96C667.845 1319.8 664.353 1316.46 660.172 1316.16C656.38 1316.24 652.199 1315.95 648.372 1314.51L644.378 1207.6C648.135 1206 652.298 1205.54 656.09 1205.46C660.641 1205.37 663.588 1201.51 663.87 1197.33C663.394 1193.17 659.902 1189.83 655.721 1189.53C621.218 1190.62 594.315 1224.94 574.82 1251.52C566.637 1242.21 558.065 1232.52 548.769 1224.36C527.057 1204.32 508.254 1195.22 488.921 1196C457.081 1197.41 432.313 1225.62 408.02 1257.99C399.836 1248.67 391.264 1238.99 381.581 1230.46C360.239 1210.03 341.436 1200.93 322.103 1201.71C319.827 1201.76 317.957 1202.93 316.846 1204.09C315.735 1205.25 314.658 1207.93 314.693 1209.45C315.169 1213.61 318.662 1216.96 322.842 1217.25C326.635 1217.17 330.815 1217.47 334.643 1218.9L339.025 1326.19C335.268 1327.78 331.105 1328.25 327.312 1328.33C322.761 1328.42 319.815 1332.27 319.532 1336.45C319.585 1338.73 320.767 1340.6 321.931 1341.72C323.483 1343.2 325.776 1343.91 327.293 1343.88C361.796 1342.79 388.7 1308.47 408.194 1281.89C416.378 1291.21 424.95 1300.9 434.245 1309.05C455.958 1329.09 474.761 1338.19 494.094 1337.41C528.597 1336.33 555.5 1302 574.995 1275.42C583.178 1284.74 591.75 1294.43 601.434 1302.96C623.146 1323 641.949 1332.1 660.894 1330.95C663.17 1330.9 665.04 1329.72 666.151 1328.56C668.038 1328.14 668.744 1325.85 668.321 1323.96ZM488.433 1322.35C478.537 1321.04 468.183 1316.32 456.595 1307.45L453.639 1228.98C463.306 1220.43 473.396 1213.77 484.368 1212.41L488.433 1322.35ZM445.765 1298.57C436.452 1289.66 427.122 1279.98 418.532 1269.54C426.259 1259.13 434.357 1248.34 443.618 1238.67L445.765 1298.57ZM494.599 1211.82C504.495 1213.13 514.849 1217.85 526.049 1226.35L529.393 1305.2C519.726 1313.74 509.636 1320.4 498.664 1321.76L494.599 1211.82ZM537.267 1235.6C546.58 1244.52 555.911 1254.19 564.5 1264.64C556.773 1275.04 548.675 1285.83 539.414 1295.51L537.267 1235.6ZM584.962 1263.46C591.948 1253.83 599.693 1244.18 607.826 1234.91L609.867 1290.26C601.718 1282.46 593.534 1273.14 584.962 1263.46ZM398.44 1270.33C391.454 1279.96 383.71 1289.6 375.577 1298.88L373.536 1243.52C381.314 1251.71 389.869 1260.64 398.44 1270.33ZM637.665 1310.94C632.285 1308.01 626.888 1304.33 620.714 1299.9L618.216 1224.83C623.42 1220.17 628.642 1216.27 634.252 1212.74L637.665 1310.94ZM345.738 1222.85C351.118 1225.77 356.515 1229.46 362.688 1233.88L365.186 1308.95C359.982 1313.61 354.76 1317.52 349.151 1321.05L345.738 1222.85Z" fill="black"/>
<path d="M453.616 1138.79H1922.65" stroke="#1C4EDD" stroke-width="13.2858" stroke-linecap="round"/>
<circle cx="1953.97" cy="1137.84" r="8.54089" fill="#1C4EDD"/>
<circle cx="1993.83" cy="1137.84" r="8.54089" fill="#1C4EDD"/>
<circle cx="2033.68" cy="1137.84" r="8.54089" fill="#1C4EDD"/>
<path d="M1748.91 1088.97C1716.27 1088.97 1691.34 1079.77 1674.13 1061.37C1656.91 1042.38 1646.53 1017.74 1642.96 987.473C1639.4 956.609 1641.48 923.37 1649.2 887.757C1658.1 849.77 1671.75 816.829 1690.15 788.932C1709.14 761.036 1731.11 739.668 1756.03 724.829C1780.96 709.991 1806.78 702.571 1833.49 702.571C1856.64 702.571 1875.04 707.617 1888.69 717.707C1902.94 727.204 1913.92 740.261 1921.63 756.881C1929.94 773.5 1935.88 792.197 1939.44 812.971C1943.59 833.745 1947.16 854.816 1950.12 876.183C1953.09 901.706 1956.06 925.744 1959.03 948.299C1961.99 970.854 1966.45 989.253 1972.38 1003.5C1978.91 1017.15 1988.11 1023.98 1999.98 1023.98C2006.51 1023.98 2013.63 1021.9 2021.35 1017.74C2029.07 1013.59 2036.78 1008.25 2044.5 1001.72L2066.76 1032.88C2055.48 1046.53 2040.34 1059 2021.35 1070.27C2002.95 1081.55 1984.85 1087.19 1967.04 1087.19C1949.23 1087.19 1934.99 1081.85 1924.3 1071.16C1913.62 1059.89 1905.31 1045.34 1899.38 1027.54C1893.44 1009.73 1888.69 990.144 1885.13 968.776C1882.16 946.815 1879.49 925.151 1877.12 903.783C1874.15 874.106 1870.59 848.583 1866.43 827.216C1862.28 805.848 1856.64 789.526 1849.52 778.248C1842.99 766.971 1832.9 761.332 1819.25 761.332C1805.6 761.332 1793.13 767.268 1781.85 779.139C1770.58 790.416 1760.78 805.848 1752.47 825.435C1744.16 845.022 1737.34 867.28 1732 892.209C1726.65 920.106 1724.58 943.847 1725.76 963.434C1727.54 983.021 1732.59 998.157 1740.9 1008.84C1749.21 1019.52 1760.78 1024.87 1775.62 1024.87C1791.65 1024.87 1808.27 1018.34 1825.48 1005.28C1842.69 992.221 1859.9 975.008 1877.12 953.641C1894.33 931.68 1911.25 906.454 1927.87 877.964C1944.48 849.474 1960.21 819.796 1975.05 788.932C1990.48 758.068 2005.03 727.5 2018.68 697.229L2081 720.378C2062.01 755.99 2042.72 791.603 2023.13 827.216C2004.14 862.235 1984.25 895.473 1963.48 926.931C1942.7 958.389 1921.04 986.286 1898.49 1010.62C1876.52 1034.96 1853.08 1054.25 1828.15 1068.49C1803.22 1082.14 1776.81 1088.97 1748.91 1088.97Z" fill="#1C4EDD"/>
<circle cx="342.585" cy="1137.84" r="8.54089" fill="#1C4EDD"/>
<circle cx="382.442" cy="1137.84" r="8.54089" fill="#1C4EDD"/>
<circle cx="422.3" cy="1137.84" r="8.54089" fill="#1C4EDD"/>
</svg>
